# xmcd
#
# Track frame offsets: 
#        150
#        9875
#        21867
#        31285
#        42950
#        56415
#        67965
#        79902
#        95060
#        107440
#        122797
#        136600
#
# Disc length: 1950 seconds
#
# Revision: 3
# Processed by: cddbd v1.5.2PL0 Copyright (c) Steve Scherf et al.
# Submitted via: ExactAudioCopyFreeDBPlugin 1.0
#
DISCID=8d079c0c
DTITLE=Bobby Womack - Bobby Womack:  The Collection [BCM Records] [box
DTITLE=set]
DYEAR=1990
DGENRE=Soul
TTITLE0=Fly Me to the Moon
TTITLE1=Baby! You Oughta Think It's Over
TTITLE2=I'm a Midnight Mover
TTITLE3=What it Is
TTITLE4=Somebody Special
TTITLE5=Take Me
TTITLE6=Moonlight in Vermont
TTITLE7=Love, the Time is Now
TTITLE8=I'm in Love
TTITLE9=California Dreamin'
TTITLE10=No Money in My Pocket
TTITLE11=Lillie Mae
EXTD=
EXTT0=
EXTT1=
EXTT2=
EXTT3=
EXTT4=
EXTT5=
EXTT6=
EXTT7=
EXTT8=
EXTT9=
EXTT10=
EXTT11=
PLAYORDER=
